<?xml version="1.0" encoding="UTF-8" standalone="no"?>
<!DOCTYPE svg PUBLIC "-//W3C//DTD SVG 1.1//EN"
 "http://www.w3.org/Graphics/SVG/1.1/DTD/svg11.dtd">
<!-- Generated by graphviz version 2.43.0 (0)
 -->
<!-- Title: %3 Pages: 1 -->
<svg width="764pt" height="412pt"
 viewBox="0.00 0.00 763.94 412.00" xmlns="http://www.w3.org/2000/svg" xmlns:xlink="http://www.w3.org/1999/xlink">
<g id="graph0" class="graph" transform="scale(1 1) rotate(0) translate(4 408)">
<title>%3</title>
<polygon fill="white" stroke="transparent" points="-4,4 -4,-408 759.94,-408 759.94,4 -4,4"/>
<!-- Outpost\nThinking -->
<g id="node1" class="node">
<title>Outpost\nThinking</title>
<polygon fill="bisque" stroke="black" points="387.55,-104 319.89,-104 319.89,-68 387.55,-68 387.55,-104"/>
<text text-anchor="middle" x="353.72" y="-88.8" font-family="Times,serif" font-size="14.00">Outpost</text>
<text text-anchor="middle" x="353.72" y="-74.8" font-family="Times,serif" font-size="14.00">Thinking</text>
</g>
<!-- Meta\nSites\nand\nPages -->
<g id="node7" class="node">
<title>Meta\nSites\nand\nPages</title>
<polygon fill="bisque" stroke="black" points="492.2,-322 438.2,-322 438.2,-258 492.2,-258 492.2,-322"/>
<text text-anchor="middle" x="465.2" y="-306.8" font-family="Times,serif" font-size="14.00">Meta</text>
<text text-anchor="middle" x="465.2" y="-292.8" font-family="Times,serif" font-size="14.00">Sites</text>
<text text-anchor="middle" x="465.2" y="-278.8" font-family="Times,serif" font-size="14.00">and</text>
<text text-anchor="middle" x="465.2" y="-264.8" font-family="Times,serif" font-size="14.00">Pages</text>
</g>
<!-- Outpost\nThinking&#45;&gt;Meta\nSites\nand\nPages -->
<g id="edge6" class="edge">
<title>Outpost\nThinking&#45;&gt;Meta\nSites\nand\nPages</title>
<path fill="none" stroke="black" d="M359.87,-104.25C369.27,-135.63 391.22,-201.06 423.39,-249 425.72,-252.47 428.37,-255.9 431.17,-259.2"/>
<polygon fill="black" stroke="black" points="428.62,-261.6 437.93,-266.66 433.81,-256.9 428.62,-261.6"/>
</g>
<!-- Modular\nClient -->
<g id="node8" class="node">
<title>Modular\nClient</title>
<polygon fill="bisque" stroke="black" points="497.42,-50 432.99,-50 432.99,-14 497.42,-14 497.42,-50"/>
<text text-anchor="middle" x="465.2" y="-34.8" font-family="Times,serif" font-size="14.00">Modular</text>
<text text-anchor="middle" x="465.2" y="-20.8" font-family="Times,serif" font-size="14.00">Client</text>
</g>
<!-- Outpost\nThinking&#45;&gt;Modular\nClient -->
<g id="edge8" class="edge">
<title>Outpost\nThinking&#45;&gt;Modular\nClient</title>
<path fill="none" stroke="black" d="M387.57,-69.8C398.9,-64.21 411.73,-57.88 423.61,-52.02"/>
<polygon fill="black" stroke="black" points="425.46,-55.01 432.88,-47.45 422.36,-48.73 425.46,-55.01"/>
</g>
<!-- Serving\nExecutables -->
<g id="node9" class="node">
<title>Serving\nExecutables</title>
<polygon fill="bisque" stroke="black" points="506.84,-104 423.57,-104 423.57,-68 506.84,-68 506.84,-104"/>
<text text-anchor="middle" x="465.2" y="-88.8" font-family="Times,serif" font-size="14.00">Serving</text>
<text text-anchor="middle" x="465.2" y="-74.8" font-family="Times,serif" font-size="14.00">Executables</text>
</g>
<!-- Outpost\nThinking&#45;&gt;Serving\nExecutables -->
<g id="edge17" class="edge">
<title>Outpost\nThinking&#45;&gt;Serving\nExecutables</title>
<path fill="none" stroke="black" d="M387.57,-86C395.63,-86 404.44,-86 413.14,-86"/>
<polygon fill="black" stroke="black" points="413.23,-89.5 423.23,-86 413.23,-82.5 413.23,-89.5"/>
</g>
<!-- JSON\nSchema -->
<g id="node2" class="node">
<title>JSON\nSchema</title>
<polygon fill="white" stroke="black" points="60.48,-135 -0.16,-135 -0.16,-99 60.48,-99 60.48,-135"/>
<text text-anchor="middle" x="30.16" y="-119.8" font-family="Times,serif" font-size="14.00">JSON</text>
<text text-anchor="middle" x="30.16" y="-105.8" font-family="Times,serif" font-size="14.00">Schema</text>
</g>
<!-- Federating\nForeign\nServers -->
<g id="node3" class="node">
<title>Federating\nForeign\nServers</title>
<polygon fill="white" stroke="black" points="172.12,-142 96.38,-142 96.38,-92 172.12,-92 172.12,-142"/>
<text text-anchor="middle" x="134.25" y="-126.8" font-family="Times,serif" font-size="14.00">Federating</text>
<text text-anchor="middle" x="134.25" y="-112.8" font-family="Times,serif" font-size="14.00">Foreign</text>
<text text-anchor="middle" x="134.25" y="-98.8" font-family="Times,serif" font-size="14.00">Servers</text>
</g>
<!-- JSON\nSchema&#45;&gt;Federating\nForeign\nServers -->
<g id="edge1" class="edge">
<title>JSON\nSchema&#45;&gt;Federating\nForeign\nServers</title>
<path fill="none" stroke="black" d="M60.41,-117C68.46,-117 77.4,-117 86.18,-117"/>
<polygon fill="black" stroke="black" points="86.35,-120.5 96.35,-117 86.35,-113.5 86.35,-120.5"/>
</g>
<!-- Federation\nFriendly\nOutposts -->
<g id="node4" class="node">
<title>Federation\nFriendly\nOutposts</title>
<polygon fill="white" stroke="black" points="283.99,-142 208.25,-142 208.25,-92 283.99,-92 283.99,-142"/>
<text text-anchor="middle" x="246.12" y="-126.8" font-family="Times,serif" font-size="14.00">Federation</text>
<text text-anchor="middle" x="246.12" y="-112.8" font-family="Times,serif" font-size="14.00">Friendly</text>
<text text-anchor="middle" x="246.12" y="-98.8" font-family="Times,serif" font-size="14.00">Outposts</text>
</g>
<!-- Federating\nForeign\nServers&#45;&gt;Federation\nFriendly\nOutposts -->
<g id="edge2" class="edge">
<title>Federating\nForeign\nServers&#45;&gt;Federation\nFriendly\nOutposts</title>
<path fill="none" stroke="black" d="M172.14,-117C180.48,-117 189.43,-117 198.12,-117"/>
<polygon fill="black" stroke="black" points="198.14,-120.5 208.14,-117 198.14,-113.5 198.14,-120.5"/>
</g>
<!-- Federation\nFriendly\nOutposts&#45;&gt;Outpost\nThinking -->
<g id="edge3" class="edge">
<title>Federation\nFriendly\nOutposts&#45;&gt;Outpost\nThinking</title>
<path fill="none" stroke="black" d="M284.05,-106.16C292.43,-103.7 301.4,-101.07 310,-98.54"/>
<polygon fill="black" stroke="black" points="311.25,-101.82 319.86,-95.65 309.28,-95.11 311.25,-101.82"/>
</g>
<!-- Javascript\nModules -->
<g id="node5" class="node">
<title>Javascript\nModules</title>
<polygon fill="white" stroke="black" points="170.23,-74 98.27,-74 98.27,-38 170.23,-38 170.23,-74"/>
<text text-anchor="middle" x="134.25" y="-58.8" font-family="Times,serif" font-size="14.00">Javascript</text>
<text text-anchor="middle" x="134.25" y="-44.8" font-family="Times,serif" font-size="14.00">Modules</text>
</g>
<!-- Node&#39;s\nMistakes -->
<g id="node6" class="node">
<title>Node&#39;s\nMistakes</title>
<polygon fill="white" stroke="black" points="279.17,-74 213.07,-74 213.07,-38 279.17,-38 279.17,-74"/>
<text text-anchor="middle" x="246.12" y="-58.8" font-family="Times,serif" font-size="14.00">Node&#39;s</text>
<text text-anchor="middle" x="246.12" y="-44.8" font-family="Times,serif" font-size="14.00">Mistakes</text>
</g>
<!-- Javascript\nModules&#45;&gt;Node&#39;s\nMistakes -->
<g id="edge4" class="edge">
<title>Javascript\nModules&#45;&gt;Node&#39;s\nMistakes</title>
<path fill="none" stroke="black" d="M170.32,-56C180.69,-56 192.16,-56 202.93,-56"/>
<polygon fill="black" stroke="black" points="203,-59.5 213,-56 203,-52.5 203,-59.5"/>
</g>
<!-- Node&#39;s\nMistakes&#45;&gt;Outpost\nThinking -->
<g id="edge5" class="edge">
<title>Node&#39;s\nMistakes&#45;&gt;Outpost\nThinking</title>
<path fill="none" stroke="black" d="M279.38,-65.16C289.12,-67.93 299.97,-71.01 310.28,-73.94"/>
<polygon fill="black" stroke="black" points="309.36,-77.32 319.93,-76.69 311.27,-70.59 309.36,-77.32"/>
</g>
<!-- Federation\nScraper -->
<g id="node10" class="node">
<title>Federation\nScraper</title>
<polygon fill="white" stroke="black" points="632.19,-362 556.45,-362 556.45,-326 632.19,-326 632.19,-362"/>
<text text-anchor="middle" x="594.32" y="-346.8" font-family="Times,serif" font-size="14.00">Federation</text>
<text text-anchor="middle" x="594.32" y="-332.8" font-family="Times,serif" font-size="14.00">Scraper</text>
</g>
<!-- Meta\nSites\nand\nPages&#45;&gt;Federation\nScraper -->
<g id="edge7" class="edge">
<title>Meta\nSites\nand\nPages&#45;&gt;Federation\nScraper</title>
<path fill="none" stroke="black" d="M492.23,-301.06C507.95,-307.73 528.42,-316.43 546.84,-324.25"/>
<polygon fill="black" stroke="black" points="545.67,-327.56 556.24,-328.25 548.4,-321.12 545.67,-327.56"/>
</g>
<!-- Content\nTransformation -->
<g id="node13" class="node">
<title>Content\nTransformation</title>
<polygon fill="white" stroke="black" points="645.42,-280 543.22,-280 543.22,-244 645.42,-244 645.42,-280"/>
<text text-anchor="middle" x="594.32" y="-264.8" font-family="Times,serif" font-size="14.00">Content</text>
<text text-anchor="middle" x="594.32" y="-250.8" font-family="Times,serif" font-size="14.00">Transformation</text>
</g>
<!-- Meta\nSites\nand\nPages&#45;&gt;Content\nTransformation -->
<g id="edge11" class="edge">
<title>Meta\nSites\nand\nPages&#45;&gt;Content\nTransformation</title>
<path fill="none" stroke="black" d="M492.23,-284.27C504.16,-281.64 518.82,-278.41 533.25,-275.23"/>
<polygon fill="black" stroke="black" points="534.15,-278.62 543.16,-273.05 532.64,-271.78 534.15,-278.62"/>
</g>
<!-- Abstraction\nin\nTurtle\nGeometry -->
<g id="node11" class="node">
<title>Abstraction\nin\nTurtle\nGeometry</title>
<polygon fill="white" stroke="black" points="635.14,-64 553.5,-64 553.5,0 635.14,0 635.14,-64"/>
<text text-anchor="middle" x="594.32" y="-48.8" font-family="Times,serif" font-size="14.00">Abstraction</text>
<text text-anchor="middle" x="594.32" y="-34.8" font-family="Times,serif" font-size="14.00">in</text>
<text text-anchor="middle" x="594.32" y="-20.8" font-family="Times,serif" font-size="14.00">Turtle</text>
<text text-anchor="middle" x="594.32" y="-6.8" font-family="Times,serif" font-size="14.00">Geometry</text>
</g>
<!-- Modular\nClient&#45;&gt;Abstraction\nin\nTurtle\nGeometry -->
<g id="edge9" class="edge">
<title>Modular\nClient&#45;&gt;Abstraction\nin\nTurtle\nGeometry</title>
<path fill="none" stroke="black" d="M497.63,-32C511.37,-32 527.82,-32 543.19,-32"/>
<polygon fill="black" stroke="black" points="543.6,-35.5 553.6,-32 543.6,-28.5 543.6,-35.5"/>
</g>
<!-- Sudoku\nHelper -->
<g id="node18" class="node">
<title>Sudoku\nHelper</title>
<polygon fill="white" stroke="black" points="623.61,-138 565.03,-138 565.03,-102 623.61,-102 623.61,-138"/>
<text text-anchor="middle" x="594.32" y="-122.8" font-family="Times,serif" font-size="14.00">Sudoku</text>
<text text-anchor="middle" x="594.32" y="-108.8" font-family="Times,serif" font-size="14.00">Helper</text>
</g>
<!-- Serving\nExecutables&#45;&gt;Sudoku\nHelper -->
<g id="edge18" class="edge">
<title>Serving\nExecutables&#45;&gt;Sudoku\nHelper</title>
<path fill="none" stroke="black" d="M507.12,-96.94C522.46,-101.05 539.81,-105.69 554.91,-109.73"/>
<polygon fill="black" stroke="black" points="554.38,-113.21 564.95,-112.41 556.19,-106.45 554.38,-113.21"/>
</g>
<!-- Turtle\nSpirals -->
<g id="node12" class="node">
<title>Turtle\nSpirals</title>
<polygon fill="white" stroke="black" points="746.17,-50 691.39,-50 691.39,-14 746.17,-14 746.17,-50"/>
<text text-anchor="middle" x="718.78" y="-34.8" font-family="Times,serif" font-size="14.00">Turtle</text>
<text text-anchor="middle" x="718.78" y="-20.8" font-family="Times,serif" font-size="14.00">Spirals</text>
</g>
<!-- Abstraction\nin\nTurtle\nGeometry&#45;&gt;Turtle\nSpirals -->
<g id="edge10" class="edge">
<title>Abstraction\nin\nTurtle\nGeometry&#45;&gt;Turtle\nSpirals</title>
<path fill="none" stroke="black" d="M635.08,-32C649.92,-32 666.68,-32 681.21,-32"/>
<polygon fill="black" stroke="black" points="681.35,-35.5 691.35,-32 681.35,-28.5 681.35,-35.5"/>
</g>
<!-- DIG\nHandbook -->
<g id="node15" class="node">
<title>DIG\nHandbook</title>
<polygon fill="white" stroke="black" points="756.11,-253 681.46,-253 681.46,-217 756.11,-217 756.11,-253"/>
<text text-anchor="middle" x="718.78" y="-237.8" font-family="Times,serif" font-size="14.00">DIG</text>
<text text-anchor="middle" x="718.78" y="-223.8" font-family="Times,serif" font-size="14.00">Handbook</text>
</g>
<!-- Content\nTransformation&#45;&gt;DIG\nHandbook -->
<g id="edge13" class="edge">
<title>Content\nTransformation&#45;&gt;DIG\nHandbook</title>
<path fill="none" stroke="black" d="M645.48,-250.94C654.12,-249.04 663.07,-247.06 671.6,-245.18"/>
<polygon fill="black" stroke="black" points="672.37,-248.6 681.38,-243.03 670.86,-241.76 672.37,-248.6"/>
</g>
<!-- Making\nGrowing\nRegions\nWiki -->
<g id="node14" class="node">
<title>Making\nGrowing\nRegions\nWiki</title>
<polygon fill="white" stroke="black" points="497.98,-240 432.43,-240 432.43,-176 497.98,-176 497.98,-240"/>
<text text-anchor="middle" x="465.2" y="-224.8" font-family="Times,serif" font-size="14.00">Making</text>
<text text-anchor="middle" x="465.2" y="-210.8" font-family="Times,serif" font-size="14.00">Growing</text>
<text text-anchor="middle" x="465.2" y="-196.8" font-family="Times,serif" font-size="14.00">Regions</text>
<text text-anchor="middle" x="465.2" y="-182.8" font-family="Times,serif" font-size="14.00">Wiki</text>
</g>
<!-- Making\nGrowing\nRegions\nWiki&#45;&gt;Content\nTransformation -->
<g id="edge12" class="edge">
<title>Making\nGrowing\nRegions\nWiki&#45;&gt;Content\nTransformation</title>
<path fill="none" stroke="black" d="M498.28,-221.63C511.31,-227.16 526.71,-233.7 541.27,-239.89"/>
<polygon fill="black" stroke="black" points="540.11,-243.2 550.68,-243.89 542.85,-236.76 540.11,-243.2"/>
</g>
<!-- Production\nTools -->
<g id="node16" class="node">
<title>Production\nTools</title>
<polygon fill="white" stroke="black" points="633.26,-226 555.38,-226 555.38,-190 633.26,-190 633.26,-226"/>
<text text-anchor="middle" x="594.32" y="-210.8" font-family="Times,serif" font-size="14.00">Production</text>
<text text-anchor="middle" x="594.32" y="-196.8" font-family="Times,serif" font-size="14.00">Tools</text>
</g>
<!-- Making\nGrowing\nRegions\nWiki&#45;&gt;Production\nTools -->
<g id="edge14" class="edge">
<title>Making\nGrowing\nRegions\nWiki&#45;&gt;Production\nTools</title>
<path fill="none" stroke="black" d="M498.28,-208C512.52,-208 529.58,-208 545.29,-208"/>
<polygon fill="black" stroke="black" points="545.37,-211.5 555.37,-208 545.37,-204.5 545.37,-211.5"/>
</g>
<!-- Production\nTools&#45;&gt;DIG\nHandbook -->
<g id="edge15" class="edge">
<title>Production\nTools&#45;&gt;DIG\nHandbook</title>
<path fill="none" stroke="black" d="M633.06,-216.32C645.15,-218.99 658.68,-221.97 671.32,-224.76"/>
<polygon fill="black" stroke="black" points="670.69,-228.2 681.21,-226.94 672.2,-221.37 670.69,-228.2"/>
</g>
<!-- Region\nScraping\nand\nIndexing -->
<g id="node17" class="node">
<title>Region\nScraping\nand\nIndexing</title>
<polygon fill="white" stroke="black" points="497.97,-404 432.44,-404 432.44,-340 497.97,-340 497.97,-404"/>
<text text-anchor="middle" x="465.2" y="-388.8" font-family="Times,serif" font-size="14.00">Region</text>
<text text-anchor="middle" x="465.2" y="-374.8" font-family="Times,serif" font-size="14.00">Scraping</text>
<text text-anchor="middle" x="465.2" y="-360.8" font-family="Times,serif" font-size="14.00">and</text>
<text text-anchor="middle" x="465.2" y="-346.8" font-family="Times,serif" font-size="14.00">Indexing</text>
</g>
<!-- Region\nScraping\nand\nIndexing&#45;&gt;Federation\nScraper -->
<g id="edge16" class="edge">
<title>Region\nScraping\nand\nIndexing&#45;&gt;Federation\nScraper</title>
<path fill="none" stroke="black" d="M498.28,-364.93C512.76,-361.74 530.16,-357.91 546.09,-354.4"/>
<polygon fill="black" stroke="black" points="547.28,-357.72 556.3,-352.16 545.78,-350.89 547.28,-357.72"/>
</g>
<!-- Sudokant -->
<g id="node19" class="node">
<title>Sudokant</title>
<polygon fill="white" stroke="black" points="499.59,-158 430.81,-158 430.81,-122 499.59,-122 499.59,-158"/>
<text text-anchor="middle" x="465.2" y="-135.8" font-family="Times,serif" font-size="14.00">Sudokant</text>
</g>
<!-- Sudokant&#45;&gt;Sudoku\nHelper -->
<g id="edge19" class="edge">
<title>Sudokant&#45;&gt;Sudoku\nHelper</title>
<path fill="none" stroke="black" d="M499.6,-134.75C516.57,-132.08 537.28,-128.82 554.91,-126.04"/>
<polygon fill="black" stroke="black" points="555.55,-129.49 564.88,-124.47 554.46,-122.57 555.55,-129.49"/>
</g>
</g>
</svg>
