<!--?xml version="1.0" encoding="UTF-8" standalone="no"?-->

<!-- Generated by graphviz version 2.46.1 (20210214.0559)
 -->
<!-- Pages: 1 -->
<svg width="269pt" height="152pt" viewBox="0.00 0.00 268.52 152.00" xmlns="http://www.w3.org/2000/svg" xmlns:xlink="http://www.w3.org/1999/xlink">
<g id="graph0" class="graph" transform="scale(1 1) rotate(0) translate(4 148)">
<polygon fill="white" stroke="transparent" points="-4,4 -4,-148 264.52,-148 264.52,4 -4,4"></polygon>
<!-- backend -->
<g id="node1" class="node">
<title>backend</title>
<polygon fill="bisque" stroke="black" points="161.4,-36 99.11,-36 99.11,0 161.4,0 161.4,-36"></polygon>
<text text-anchor="middle" x="130.26" y="-13.8" font-family="Times,serif" font-size="14.00">backend</text>
</g>
<!-- db -->
<g id="node2" class="node">
<title>db</title>
<polygon fill="bisque" stroke="black" points="260.52,-90 206.52,-90 206.52,-54 260.52,-54 260.52,-90"></polygon>
<text text-anchor="middle" x="233.52" y="-67.8" font-family="Times,serif" font-size="14.00">db</text>
</g>
<!-- backend&#45;&gt;db -->
<g id="edge1" class="edge">
<title>backend-&gt;db</title>
<path fill="none" stroke="black" d="M161.64,-34.2C172.85,-40.18 185.66,-47.01 197.27,-53.2"></path>
<polygon fill="black" stroke="black" points="195.8,-56.39 206.27,-58 199.09,-50.21 195.8,-56.39"></polygon>
</g>
<!-- source -->
<g id="node3" class="node">
<title>source</title>
<polygon fill="bisque" stroke="black" points="54,-36 0,-36 0,0 54,0 54,-36"></polygon>
<text text-anchor="middle" x="27" y="-13.8" font-family="Times,serif" font-size="14.00">source</text>
</g>
<!-- source&#45;&gt;backend -->
<g id="edge2" class="edge">
<title>source-&gt;backend</title>
<path fill="none" stroke="black" d="M54.08,-18C64.68,-18 77.18,-18 88.92,-18"></path>
<polygon fill="black" stroke="black" points="88.96,-21.5 98.96,-18 88.96,-14.5 88.96,-21.5"></polygon>
</g>
<!-- user -->
<g id="node4" class="node">
<title>user</title>
<polygon fill="bisque" stroke="black" points="54,-117 0,-117 0,-81 54,-81 54,-117"></polygon>
<text text-anchor="middle" x="27" y="-94.8" font-family="Times,serif" font-size="14.00">user</text>
</g>
<!-- webserver1 -->
<g id="node5" class="node">
<title>webserver1</title>
<polygon fill="bisque" stroke="black" points="170.28,-144 90.24,-144 90.24,-108 170.28,-108 170.28,-144"></polygon>
<text text-anchor="middle" x="130.26" y="-121.8" font-family="Times,serif" font-size="14.00">webserver1</text>
</g>
<!-- user&#45;&gt;webserver1 -->
<g id="edge3" class="edge">
<title>user-&gt;webserver1</title>
<path fill="none" stroke="black" d="M54.08,-105.95C62.08,-108.09 71.16,-110.51 80.18,-112.91"></path>
<polygon fill="black" stroke="black" points="79.33,-116.31 89.89,-115.5 81.13,-109.54 79.33,-116.31"></polygon>
</g>
<!-- webserver2 -->
<g id="node6" class="node">
<title>webserver2</title>
<polygon fill="bisque" stroke="black" points="170.28,-90 90.24,-90 90.24,-54 170.28,-54 170.28,-90"></polygon>
<text text-anchor="middle" x="130.26" y="-67.8" font-family="Times,serif" font-size="14.00">webserver2</text>
</g>
<!-- user&#45;&gt;webserver2 -->
<g id="edge4" class="edge">
<title>user-&gt;webserver2</title>
<path fill="none" stroke="black" d="M54.08,-92.05C62.08,-89.91 71.16,-87.49 80.18,-85.09"></path>
<polygon fill="black" stroke="black" points="81.13,-88.46 89.89,-82.5 79.33,-81.69 81.13,-88.46"></polygon>
</g>
<!-- webserver1&#45;&gt;db -->
<g id="edge5" class="edge">
<title>webserver1-&gt;db</title>
<path fill="none" stroke="black" d="M165.26,-107.87C175.66,-102.32 187.11,-96.22 197.57,-90.64"></path>
<polygon fill="black" stroke="black" points="199.28,-93.69 206.45,-85.9 195.98,-87.52 199.28,-93.69"></polygon>
</g>
<!-- webserver2&#45;&gt;db -->
<g id="edge6" class="edge">
<title>webserver2-&gt;db</title>
<path fill="none" stroke="black" d="M170.41,-72C178.86,-72 187.76,-72 196.1,-72"></path>
<polygon fill="black" stroke="black" points="196.3,-75.5 206.3,-72 196.3,-68.5 196.3,-75.5"></polygon>
</g>
</g>
</svg>
